inDegrees=no
num_controls=7
num_derivatives=13
num_iterations=120
num_multipliers=7
num_parameters=0
num_slacks=7
num_states=26
objective=0.516766
objective_accelerations=0.039756
objective_balance=0.002238
objective_effort=0.044295
objective_height=0.418829
objective_ligament=0.011648
solver_duration=1585.705693
status=Solve_Succeeded
success=true
DataType=double
version=3
OpenSimVersion=4.5
endheader
time	/jointset/ground_pelvis/pelvis_tilt/value	/jointset/ground_pelvis/pelvis_tx/value	/jointset/ground_pelvis/pelvis_ty/value	/jointset/hip_l/hip_flexion_l/value	/jointset/hip_l/hip_adduction_l/value	/jointset/hip_l/hip_rotation_l/value	/jointset/back/lumbar_extension/value	/jointset/patellofemoral_l/patellar_flexion_l/value	/jointset/knee_l/knee_flexion_l/value	/jointset/knee_l/knee_adduction_l/value	/jointset/knee_l/knee_rotation_l/value	/jointset/ankle_l/ankle_angle_l/value	/jointset/subtalar_l/subtalar_angle_l/value	/jointset/ground_pelvis/pelvis_tilt/speed	/jointset/ground_pelvis/pelvis_tx/speed	/jointset/ground_pelvis/pelvis_ty/speed	/jointset/hip_l/hip_flexion_l/speed	/jointset/hip_l/hip_adduction_l/speed	/jointset/hip_l/hip_rotation_l/speed	/jointset/back/lumbar_extension/speed	/jointset/patellofemoral_l/patellar_flexion_l/speed	/jointset/knee_l/knee_flexion_l/speed	/jointset/knee_l/knee_adduction_l/speed	/jointset/knee_l/knee_rotation_l/speed	/jointset/ankle_l/ankle_angle_l/speed	/jointset/subtalar_l/subtalar_angle_l/speed	/forceset/tau_hip_flexion_l	/forceset/tau_hip_adduction_l	/forceset/tau_hip_rotation_l	/forceset/tau_knee_flexion_l	/forceset/tau_ankle_angle_l	/forceset/tau_subtalar_angle_l	/forceset/tau_lumbar_extension	lambda_cid13_p0	lambda_cid13_p1	lambda_cid13_p2	lambda_cid13_p3	lambda_cid13_p4	lambda_cid13_p5	lambda_cid14_p0	/jointset/ground_pelvis/pelvis_tilt/accel	/jointset/ground_pelvis/pelvis_tx/accel	/jointset/ground_pelvis/pelvis_ty/accel	/jointset/hip_l/hip_flexion_l/accel	/jointset/hip_l/hip_adduction_l/accel	/jointset/hip_l/hip_rotation_l/accel	/jointset/back/lumbar_extension/accel	/jointset/patellofemoral_l/patellar_flexion_l/accel	/jointset/knee_l/knee_flexion_l/accel	/jointset/knee_l/knee_adduction_l/accel	/jointset/knee_l/knee_rotation_l/accel	/jointset/ankle_l/ankle_angle_l/accel	/jointset/subtalar_l/subtalar_angle_l/accel	gamma_cid13_p0	gamma_cid13_p1	gamma_cid13_p2	gamma_cid13_p3	gamma_cid13_p4	gamma_cid13_p5	gamma_cid14_p0
0.5	-0.1258388130630216	-0.05836983942926623	0.8240855364072285	0.8970245789214268	-0.3239869000675223	-0.1242630655607819	-0.7798169547040306	0.781701018079258	0.7817010180791842	-0.1107656921078762	-0.1745059757291439	0.06380699558671123	-0.0096690138040812	-0.2205807349908631	-0.2115629776937682	-0.3406050605987822	1.510034525130531	-0.04171071204866205	0.4558509660614186	-0.8435466485370486	1.423801049332563	1.423801049332545	0.1284197331203213	7.701927052790768e-05	0.2240071189769395	0.02490555760499946	-0.2863589118236655	0.02945827081138054	-0.003028471336748271	-0.2065533447100601	0.1199737196725755	0.04182425305783409	0.3326156674183667	-6.309004875386521	-18.3834283290609	3.988630489731044	-9.900138675669162	-703.4740636708387	-69.33450550527381	-15.14187147625161	0.3054468464042738	0.6673540825874213	-0.1157156617576642	-1.445763736605937	0.2248183256688168	-0.3234541216336075	1.728376465432671	-1.050505817517549	-1.050505817517636	-0.2752001691489404	0.0294135603215102	0.04966254066403335	0.2604396957930861	-3.879279455867579e-08	-5.380417719198155e-07	-4.817085744403843e-08	-7.376519255421287e-08	-6.992272374536232e-08	-4.336819450520164e-08	-7.220125711163844e-08
0.51	-0.1280290577904531	-0.06045199620218687	0.8206744382540374	0.912050439422824	-0.3243931108342197	-0.1197223211047428	-0.7881650503859532	0.7958842847536682	0.7958842847535642	-0.1094953956798128	-0.1745048926359594	0.06604888028790191	-0.009407491870408785	-0.2174353561372475	-0.2048585023885676	-0.3415384276014206	1.494925510197066	-0.03953090210512208	0.4522230269074408	-0.8259803263290356	1.412639324590662	1.412639324590646	0.1256459384617671	0.0001278198390666435	0.2243220357248472	0.02738624724775902	-0.2929982194406285	0.02992846308147838	-0.003227552163110281	-0.2088861876526545	0.1201767443585444	0.04219005395411705	0.3389345876177067	-6.46999751283862	-18.46177066391929	3.941339722430062	-9.905585347382326	-707.434718147813	-69.155850852391	-14.62437042044578	0.3240093242470142	0.6734610588772963	-0.07073874775342553	-1.575282211605068	0.2147159883974119	-0.3937598502929741	1.784584326215062	-1.180935908292323	-1.180935908291956	-0.2776058500404461	-0.008848922821436733	0.01521953754770742	0.2400826263097524	-5.806811483769525e-08	-4.324062672263399e-07	1.132516523771608e-07	-4.455927797467031e-08	-8.022895087805802e-08	-3.349672205808332e-08	-7.910230841794831e-08
0.52	-0.1301868635454659	-0.06246681486117724	0.8172562881251728	0.9269188474069099	-0.3247774927695413	-0.1152201152478468	-0.7963347180002496	0.8099495481595061	0.8099495481593717	-0.1082526645455002	-0.1745036539826786	0.06829247681571039	-0.009121523234750298	-0.2140929405073629	-0.1980953549077157	-0.3420154557335213	1.478544021668072	-0.03734494577354875	0.4481432462329386	-0.8078610350118482	1.400200395618124	1.400200395618111	0.1229066743699409	0.0001081312899457456	0.2243494843004981	0.02979489800221307	-0.2996375270575916	0.03039865535157521	-0.003426632989463145	-0.2112190305952496	0.1203797690445127	0.04255585485039863	0.3452535078170469	-6.634123952542757	-18.54037071568482	3.895011129093199	-9.936729825976116	-711.4658202689611	-68.99673453032463	-14.10385615534	0.3448542016580732	0.6790885177177202	-0.024447887650121	-1.700258455711515	0.2260476032754872	-0.4138224257384726	1.83897028726754	-1.305946663644805	-1.305946663644925	-0.2682940558033615	0.01531573678957875	-0.007831093787285975	0.2460319181319935	-9.890680669632883e-08	-2.708082316675225e-07	4.210092878038536e-07	1.058868030260018e-08	-1.120689769605461e-07	-1.981512158630905e-08	-9.71081189494692e-08
0.53	-0.1323102533571118	-0.06441374896503975	0.8138356780010518	0.9416170399191215	-0.3251401897138294	-0.1107595545263521	-0.8043204722187181	0.8238839954143728	0.8238839954142191	-0.107038362723469	-0.1745020728062717	0.0705348721187347	-0.008812085087217909	-0.210552509800002	-0.1912859479582688	-0.3420271907520147	1.460882725719172	-0.0351959263723873	0.4438983051531825	-0.7892011594748054	1.386477490858028	1.386477490858022	0.1199567670322508	0.000198543924313188	0.2240831397503315	0.03207823819890174	-0.3062339489445315	0.03081170481858034	-0.003632171428799437	-0.2134943679175407	0.1203857261838934	0.04289249420540944	0.3515127743153844	-6.865949963645109	-18.59459633628578	3.844961015481952	-9.869358603686566	-715.5201069182471	-68.812235583545	-13.58096615694925	0.363501838977579	0.6827023806560879	0.02234468325523546	-1.830844030800489	0.2090512948548223	-0.4405183764863776	1.892793567945458	-1.437175743630163	-1.437175743628956	-0.307892772206938	0.004588651234207323	-0.04300594567426901	0.2172727855150532	-1.182934514815734e-07	-1.595950223923637e-07	5.89615687224101e-07	4.263895037094942e-08	-1.240407704888604e-07	-6.246034618388271e-09	-1.037671023556168e-07
